<?xml version="1.0" encoding="UTF-8"?>
<!-- WiseOwl.Casc mark: the owner's hand-drawn Wise Owl card,
     potrace-vectorised (calligraphic), recoloured autumn brown,
     parchment + the two bottom rules removed. Generated by
     build/OwlTrace from assets/Owl.jpg; do not hand-edit. -->
<svg xmlns="http://www.w3.org/2000/svg" viewBox="0 0 1368 1368" width="1368" height="1368">
  <defs><linearGradient id="t" x1="0" y1="0" x2="0" y2="1"><stop offset="0" stop-color="#161b22"/><stop offset="1" stop-color="#0b0e13"/></linearGradient></defs>
  <rect width="1368" height="1368" rx="280" fill="url(#t)"/>
  <rect x="1" y="1" width="1366" height="1366" rx="279" fill="none" stroke="#2a3340" stroke-width="2"/>
  <path fill="#8A5A33" fill-rule="evenodd" d="M627 1252.08C622.192 1250.55 621.217 1249.78 619.25 1245.96C617.651 1242.84 616.999 1239.83 616.996 1235.54C616.992 1230.46 616.505 1228.78 613.943 1225C608.822 1217.44 607 1213.26 607 1209.08C607 1206.14 606.484 1204.79 605.066 1204.04C602.184 1202.49 575.496 1202.68 574.268 1204.25C573.73 1204.94 572.769 1207.05 572.133 1208.94C571.496 1210.82 570.208 1213.22 569.271 1214.25C567.36 1216.36 564.355 1221.18 560.527 1228.26C558.374 1232.25 556.929 1233.51 551.682 1235.99C548.142 1237.66 542.038 1239.45 537.672 1240.1C530.638 1241.15 529.068 1241.04 520.398 1238.92C515.152 1237.64 509.542 1235.79 507.93 1234.81C505.32 1233.22 505 1232.49 505 1228.04C505 1223.55 504.71 1222.9 502.119 1221.56C500.535 1220.74 498.072 1218.69 496.647 1216.99C495.221 1215.3 491.68 1212.94 488.778 1211.76C481.508 1208.78 473.801 1202.95 471.776 1198.89C466.515 1188.34 462.586 1177.83 462.078 1172.96C461.279 1165.3 458.563 1162 453.056 1162C448.932 1162 443 1164.29 443 1165.88C443 1167.39 430.811 1180.05 427.926 1181.54C426.371 1182.34 423.848 1183 422.319 1183C420.79 1183 417.28 1183.85 414.519 1184.89C405.344 1188.35 392.568 1191.96 387.137 1192.63C383.14 1193.12 381.031 1194.01 378.853 1196.14C376.092 1198.84 375.45 1199 367.216 1199.01C362.422 1199.01 355.961 1199.43 352.857 1199.94C347.164 1200.87 317.791 1199.12 316.44 1197.77C316.085 1197.42 316.106 1194.87 316.486 1192.1C317.129 1187.43 317.506 1186.88 321.839 1184.39C326.604 1181.64 329.764 1181.27 337.76 1182.54C340.103 1182.91 343.14 1182.93 344.509 1182.59C347.541 1181.83 351.998 1175.1 352.006 1171.27C352.019 1164.47 355.5 1157.43 360.071 1154.97C360.934 1154.5 366.741 1153.37 372.973 1152.46C386.315 1150.5 391.895 1148.36 395 1144C396.248 1142.25 399.121 1139.96 401.384 1138.91C403.648 1137.87 407.613 1135.55 410.195 1133.76C414.506 1130.77 414.895 1130.15 414.945 1126.29C414.987 1123.1 414.526 1121.82 413.053 1121.03C408.755 1118.73 401.436 1111.53 400.417 1108.61C399.822 1106.9 397.347 1103.98 394.917 1102.13C392.028 1099.93 389.116 1096.24 386.5 1091.47C384.3 1087.46 380.35 1081.33 377.723 1077.84C375.095 1074.35 372.17 1070.4 371.223 1069.05C370.275 1067.7 368.276 1065.18 366.779 1063.45C365.283 1061.72 363.139 1058.32 362.014 1055.9C360.89 1053.48 359.019 1050.01 357.858 1048.19C356.696 1046.37 354.494 1040.6 352.964 1035.38C351.434 1030.15 348.904 1024.05 347.341 1021.82C344.076 1017.16 343.388 1015.91 339.124 1006.9C337.406 1003.27 336 999.708 336 998.987C336 998.266 334.873 995.752 333.495 993.401C332.117 991.049 330.582 986.51 330.084 983.313C329.586 980.116 328.483 975.7 327.633 973.5C326.783 971.3 326.068 968.064 326.044 966.31C326.02 964.555 324.875 960 323.5 956.189C322.125 952.377 321 947.284 321 944.871C321 942.091 320.069 938.734 318.457 935.706C316.048 931.182 315.95 930.4 316.601 920.947C317.162 912.805 316.987 910.278 315.654 907.233C314.754 905.18 313.377 900.963 312.594 897.863C311.81 894.763 310.416 890.772 309.497 888.995C308.016 886.13 307.819 880.928 307.762 843.132C307.701 802.501 308.722 778.867 310.964 769C311.527 766.525 312.424 759.775 312.959 754C313.561 747.502 314.889 740.832 316.445 736.5C318.207 731.59 318.964 727.41 318.979 722.5C318.991 718.65 319.733 711.9 320.629 707.5C321.525 703.1 322.564 697.25 322.939 694.5C323.682 689.033 326.936 681.917 330.484 678C332.896 675.337 333.832 671.202 334.859 658.679C335.297 653.329 335.974 650.574 337 649.958C340.697 647.738 341.203 647.041 342.125 642.896C342.663 640.478 344.246 636.841 345.643 634.813C347.041 632.786 348.596 629.293 349.1 627.052C349.603 624.811 352.194 619.045 354.857 614.239C357.519 609.432 360.241 603.842 360.905 601.816C361.686 599.43 363.286 597.439 365.446 596.165C367.655 594.861 369.205 592.899 370.042 590.349C371.699 585.293 373.897 582 375.615 582C376.56 582 377 580.751 377 578.065C377 575.901 377.433 572.991 377.962 571.599C378.892 569.154 379.145 569.089 385.433 569.676C391.819 570.272 391.961 570.233 392.971 567.577C393.537 566.088 394 561.103 394 556.5C394 551.897 394.443 546.964 394.985 545.539C396.171 542.42 398.684 541.265 400.886 542.826C401.774 543.455 403.969 544.632 405.764 545.44C407.559 546.248 409.295 547.605 409.621 548.455C410.467 550.659 416.408 550.424 423.014 547.925C426.031 546.784 429.698 545.477 431.162 545.02C432.626 544.564 435.152 543.208 436.776 542.008C443.499 537.037 446.472 541.15 445.351 553.876C444.701 561.252 444.701 561.252 451.234 560.836C456.201 560.52 458.749 559.77 461.862 557.71C466.638 554.55 467.597 554.455 472.989 556.612C475.602 557.658 477.16 558.976 477.421 560.362C479.038 568.955 480.005 576.452 480.032 580.615C480.049 583.315 480.72 586.368 481.532 587.441C485.422 592.584 479.84 593.976 475.589 588.923C474.165 587.231 473 585.448 473 584.961C473 584.474 472.068 581.583 470.928 578.538C468.856 573 468.856 573 464.47 573C460.7 573 459.551 573.543 456.292 576.862C450.366 582.898 447.848 586.725 445.456 593.329C442.99 600.141 441.482 601.589 437.814 600.668C435.92 600.193 434.675 598.528 432.656 593.771C431.192 590.322 429.996 586.915 429.997 586.2C430.003 583.578 433.102 579 434.871 579C437.985 579 440 575.722 440 570.657C440 566.644 439.534 565.547 436.75 563.015C434.062 560.57 432.636 560.058 428.5 560.054C424.311 560.049 422.77 560.614 419 563.537C416.525 565.456 412.49 568.376 410.034 570.026C405.058 573.368 391.877 587.852 389.582 592.5C388.767 594.15 387.181 598.604 386.057 602.397C384.933 606.19 382.955 610.69 381.66 612.397C380.366 614.104 378.548 617.798 377.621 620.606C376.694 623.415 374.78 626.79 373.368 628.106C370.147 631.111 366 639.146 366 642.384C366 643.731 364.425 647.803 362.5 651.431C360.575 655.06 359 658.947 359 660.07C359 661.193 357.323 665.972 355.274 670.69C352.558 676.942 350.525 680.091 347.774 682.302C345.523 684.11 344 686.201 344 687.481C344 688.661 342.254 692.523 340.121 696.063C337.978 699.618 335.702 705.102 335.037 708.313C334.374 711.509 332.947 716.126 331.865 718.571C330.784 721.017 329.286 727.626 328.538 733.259C327.79 738.892 326.687 744.767 326.089 746.315C325.49 747.863 324.992 752.363 324.983 756.315C324.973 760.267 324.3 767.55 323.486 772.5C322.673 777.45 322.006 787.381 322.004 794.568C322.001 803.699 321.512 809.274 320.381 813.068C319.117 817.308 318.92 820.474 319.484 827.5C319.88 832.45 320.123 840.778 320.024 846.006C319.9 852.467 320.343 856.952 321.406 860.006C322.42 862.918 322.991 868.196 323.029 875C323.065 881.482 323.639 887.031 324.529 889.5C325.321 891.7 325.991 894.625 326.017 896C326.043 897.375 326.724 899.374 327.532 900.441C328.471 901.683 329.006 904.746 329.017 908.941C329.032 914.484 329.393 915.839 331.347 917.691C334.377 920.562 336.989 935.533 335.161 939.546C334.522 940.947 334 943.815 334 945.919C334 949.619 334.133 949.766 338.068 950.395C340.314 950.754 343.19 952.1 344.49 953.399C347.247 956.156 351 967.516 351 973.105C351 976.982 350.982 977 347 977C343 977 343 977 343 981.5C343 986 343 986 347.5 986C352 986 352 986 352 982.057C352 978.134 352.021 978.114 356.25 977.807C360.5 977.5 360.5 977.5 360.5 959.957C360.5 944.194 360.699 942.113 362.463 939.457C363.543 937.83 364.668 934.475 364.963 932C365.405 928.294 365.897 927.444 367.748 927.181C368.985 927.005 371.309 927.796 372.914 928.939C374.519 930.081 377.22 931.294 378.916 931.633C383.788 932.608 382.545 934.588 375.5 937.075C369 939.37 369 939.37 369 943.484C369 947.236 369.292 947.704 372.321 948.799C375.921 950.101 383.285 950.344 389.249 949.358C394.103 948.556 397 944.173 397 937.632C397 933 397 933 392 933C387.412 933 387 932.805 387 930.64C387 929.341 388.189 926.529 389.642 924.39C391.521 921.622 392.5 918.527 393.036 913.662C393.62 908.351 394.482 905.857 396.894 902.498C398.915 899.684 400 896.983 400 894.765C400 892.532 401.026 890.001 402.972 887.428C405.379 884.247 405.95 882.5 405.972 878.243C405.995 873.902 406.435 872.608 408.5 870.813C409.962 869.541 411 867.565 411 866.052C411 864.629 412.061 861.897 413.359 859.982C414.656 858.067 416.067 855.375 416.494 854C416.921 852.625 418.559 850.022 420.135 848.215C421.711 846.409 423 844.486 423 843.943C423 842.18 430.968 834.256 434.006 832.998C437.167 831.688 442 832.351 442 834.094C442 836.172 433.534 849.587 429.307 854.207C425.554 858.309 425 859.499 425 863.457C425 868 425 868 428.8 868C430.89 868 433.14 868.54 433.8 869.2C436.614 872.014 434.263 885.639 429.377 894.827C428.07 897.286 427 900.059 427 900.989C427 901.919 425.65 906.576 424 911.338C421.815 917.645 421 921.835 421 926.766C421 932.483 420.578 934.155 418.288 937.518C415.575 941.5 415.575 941.5 415.652 971C415.723 997.96 415.9 1000.93 417.712 1005.5C419.242 1009.36 419.589 1012.05 419.229 1017.29C418.856 1022.71 419.168 1024.92 420.78 1028.29C421.889 1030.6 424.035 1036.55 425.548 1041.5C427.062 1046.45 429.164 1051.46 430.221 1052.64C431.278 1053.82 432.492 1057.19 432.919 1060.14C433.386 1063.36 435.948 1070.12 439.348 1077.09C442.457 1083.46 445 1089.42 445 1090.34C445 1092.93 454.09 1092.66 456.5 1090C457.495 1088.9 459.056 1088 459.968 1088C462.111 1088 466.584 1092.78 467.446 1096C467.814 1097.38 468.833 1100.19 469.71 1102.25C471.23 1105.83 471.522 1106 476.007 1106C480.457 1106 480.761 1105.82 481.639 1102.75C482.307 1100.42 483.619 1099 486.301 1097.73C488.354 1096.76 491.614 1094.22 493.546 1092.08C497.254 1087.98 508.81 1080.59 513.273 1079.47C514.728 1079.1 516.442 1078.17 517.081 1077.4C517.721 1076.63 519.445 1076 520.911 1076C522.377 1076 525.36 1075.08 527.539 1073.95C529.717 1072.82 533.525 1071.65 536 1071.35C539.897 1070.87 541.439 1071.31 547.5 1074.62C554.5 1078.45 554.5 1078.45 568 1078.58C575.425 1078.65 582.081 1078.77 582.79 1078.85C583.5 1078.93 585.75 1080.75 587.79 1082.89C591.708 1086.99 598.813 1090 604.596 1090C610.365 1090 610.998 1089.33 611.024 1083.14C611.055 1075.83 612.36 1070.36 614.887 1066.94C616 1065.43 617.205 1063.03 617.564 1061.6C618.307 1058.64 620.609 1058.13 621.381 1060.75C621.665 1061.71 622.21 1067.84 622.592 1074.37C623.287 1086.24 623.287 1086.24 630.893 1085.62C635.077 1085.27 643.675 1084.71 650 1084.38C659.423 1083.87 661.884 1083.41 663.626 1081.82C666.313 1079.37 675.675 1077.95 691.5 1077.6C703.5 1077.33 703.5 1077.33 707.5 1081.54C712.581 1086.89 714.79 1088 720.387 1088C724.554 1088 725.033 1087.73 726.539 1084.56C727.437 1082.67 729.255 1080.41 730.578 1079.54C731.902 1078.67 734.067 1075.83 735.391 1073.23C736.847 1070.37 739.534 1067.28 742.198 1065.41C745.618 1063.01 747.088 1061.04 748.799 1056.57C750.01 1053.41 751 1050.03 751 1049.07C751 1048.11 753.236 1043.33 755.969 1038.46C758.818 1033.37 761.222 1027.65 761.603 1025.05C761.968 1022.55 763.073 1018.43 764.059 1015.9C765.045 1013.37 766.341 1007.79 766.938 1003.49C768.18 994.56 769.1 993 773.122 993C775.893 993 776 992.821 776 988.2C776 985.56 775.532 982.932 774.961 982.361C774.242 981.642 774.265 979.5 775.034 975.411C776.43 967.989 778.205 924.479 777.765 908.5C777.392 894.986 776.021 890.995 770.782 888.163C769.089 887.248 766.196 885.216 764.352 883.646C761.274 881.026 761 880.326 761 875.088C761 871.619 761.576 868.621 762.468 867.441C763.488 866.093 763.946 862.873 763.968 856.903C763.995 849.765 764.34 847.914 766.004 845.996C767.106 844.725 768.457 842.017 769.006 839.977C769.555 837.938 771.342 834.586 772.977 832.529C774.611 830.472 776.244 827.214 776.606 825.288C777.067 822.828 778.858 820.275 782.631 816.699C787.908 811.697 788 811.512 788 805.87C788 802.713 787.548 798.942 786.996 797.489C786.272 795.584 786.411 793.04 787.496 788.362C789.388 780.203 789.423 769.83 787.579 763.432C785.836 757.382 784 740.501 784 730.52C784 726.449 783.592 722.866 783.094 722.558C782.595 722.25 781.466 719.881 780.585 717.294C779.703 714.707 777.872 711.433 776.517 710.017C774.764 708.188 773.623 705.205 772.569 699.697C771.754 695.436 770.806 691.495 770.462 690.939C770.119 690.383 769.455 687.221 768.987 683.911C768.3 679.051 767.44 677.123 764.512 673.882C761.534 670.585 760.942 669.23 761.194 666.286C761.654 660.906 764.19 659.849 767.964 663.465C769.634 665.065 771 666.856 771 667.445C771 668.034 772.126 670.63 773.501 673.214C774.877 675.799 776.504 680.295 777.118 683.206C778.207 688.376 784.67 701.794 787.721 705.218C788.563 706.162 789.59 709.763 790.003 713.218C790.417 716.673 791.239 720.85 791.83 722.5C792.421 724.15 793.586 729.775 794.419 735C795.251 740.225 796.222 746.075 796.576 748C796.931 749.925 797.544 759.15 797.94 768.5C798.336 777.85 799.2 787.075 799.859 789C800.791 791.72 800.792 794.888 799.861 803.216C798.944 811.418 798.937 814.846 799.831 817.832C801.253 822.578 801.351 830.947 800.025 834.435C799.084 836.91 798.753 837 790.56 837C780.842 837 779.989 837.662 780.015 845.184C780.034 850.393 780.678 851.491 784.222 852.358C790.352 853.858 792 858.02 792 871.995C792 877.986 792.63 882.711 794 887C795.1 890.443 796 894.122 796 895.176C796 896.229 797.115 898.205 798.477 899.568C799.839 900.93 801.402 902.882 801.95 903.906C802.497 904.93 804.59 906.076 806.6 906.453C808.745 906.855 812.782 909.164 816.377 912.044C819.745 914.743 823.532 917.749 824.793 918.725C827.852 921.092 829.799 927.149 830.604 936.8C831.456 947.015 830.527 952.944 827.34 957.641C825.028 961.047 824.77 962.418 824.642 971.954C824.5 982.5 824.5 982.5 830.141 982.797C835.223 983.064 835.987 982.832 837.859 980.452C839.002 978.999 840.458 975.161 841.095 971.923C842.422 965.177 843.18 964.289 848.004 963.832C851.062 963.542 851.539 963.124 851.815 960.5C852.482 954.136 855.242 945.549 857.623 942.427C858.991 940.633 862.506 933.961 865.433 927.6C868.361 921.238 873.055 911.989 875.867 907.044C878.678 902.1 881.391 896.214 881.897 893.964C882.402 891.714 883.982 888.19 885.408 886.133C887.334 883.353 888 881.136 888 877.5C888 873.865 888.666 871.647 890.588 868.872C892.295 866.41 893.455 862.985 893.992 858.819C894.44 855.343 895.301 850.475 895.904 848C896.507 845.525 897.706 840.13 898.567 836.011C899.428 831.891 900.949 827.166 901.948 825.511C903.074 823.642 903.949 819.715 904.254 815.159C904.622 809.67 905.285 807.146 906.882 805.159C909.879 801.428 910.739 799.111 912.016 791.319C914.564 775.769 917.463 741.208 916.539 737.382C916.258 736.217 915.557 727.796 914.981 718.667C914.184 706.043 913.468 701.045 911.989 697.785C910.919 695.428 910.034 692.303 910.022 690.839C910.01 689.375 909.1 685.775 908.001 682.839C906.902 679.903 905.393 672.649 904.647 666.72C903.553 658.014 902.852 655.472 901.003 653.503C899.413 651.811 898.567 649.45 898.237 645.783C897.944 642.536 897.029 639.697 895.863 638.417C894.819 637.272 893.347 633.447 892.59 629.917C891.834 626.388 889.817 620.421 888.108 616.657C886.398 612.893 885 608.956 885 607.908C885 605.156 878.167 592.154 876.181 591.128C875.257 590.65 868.059 589.942 860.186 589.556C845.873 588.853 845.873 588.853 846.186 606.865C846.522 626.122 846.154 627.788 841.823 626.636C836.663 625.263 836.555 624.945 835.934 609.293C835.521 598.884 834.889 593.611 833.801 591.5C831.501 587.034 830.718 564.477 832.803 562.754C833.832 561.904 837.449 561.566 844.037 561.706C853.754 561.912 853.754 561.912 854.231 556.946C854.767 551.369 856.744 548.616 862 546.126C865.5 544.468 865.5 544.468 865.441 529.484C865.408 521.243 865.038 511.913 864.619 508.75C863.856 503 863.856 503 859.624 503C856.112 503 854.823 503.587 852.048 506.45C850.209 508.348 845.733 511.123 842.102 512.616C838.471 514.109 832.519 516.598 828.875 518.147C824.543 519.988 819.696 521.157 814.875 521.524C810.819 521.833 804.016 522.571 799.757 523.164C789.462 524.598 767.298 522.699 761.5 519.886C749.989 514.303 745.942 511.842 744.398 509.485C741.558 505.15 734.635 501 730.244 501C725.303 501 722.9 503.448 719.391 512.054C715.668 521.188 709.391 542.491 708.505 549C707.861 553.735 704.586 561.316 699.265 570.393C698.585 571.552 698.023 573.65 698.015 575.055C698.007 576.465 695.95 580.497 693.424 584.055C690.907 587.6 687.924 592.3 686.794 594.5C685.665 596.7 683.037 600.361 680.955 602.636C678.873 604.91 676.397 608.285 675.452 610.136C674.507 611.986 671.603 616.227 669 619.56C666.396 622.893 663.083 627.492 661.638 629.781C657.336 636.596 649.669 638.949 643.003 635.501C639.636 633.76 630.863 621.184 629.008 615.439C628.308 613.273 626.22 610.089 624.368 608.365C621.325 605.533 621 604.694 621 599.68C621 592.789 619.851 589.684 615.531 584.903C613.035 582.139 611.986 579.888 611.537 576.328C611.202 573.673 609.878 569.475 608.595 567C606.957 563.841 606.083 560.039 605.661 554.242C605.331 549.699 604.592 545.107 604.019 544.036C602.84 541.833 599.461 520.33 598.514 509C597.482 496.659 597.662 497 592.168 497C588.101 497 586.929 497.471 584.437 500.108C582.782 501.859 575.826 505.959 568.5 509.502C556.724 515.197 554.653 515.869 546.5 516.644C541.55 517.115 530.489 517.5 521.92 517.5C506.344 517.5 506.339 517.499 502.619 514.66C499.523 512.297 497.501 511.693 490.587 511.063C483.917 510.455 481.165 509.669 476.645 507.083C468.652 502.51 467.791 501.765 454.818 488.202C451.852 485.1 449.921 481.656 447.884 475.835C445.085 467.838 441.113 461.364 438.357 460.307C436.149 459.46 434.315 455.053 433.652 449C432.92 442.322 434.435 418.588 436.077 411C437.786 403.1 437.943 369.198 436.277 367.815C435.575 367.232 435 364.763 435 362.328C435 356.891 432.711 352.197 429.732 351.527C428.504 351.251 422.55 350.852 416.5 350.64C395.372 349.902 366.477 348.034 363.577 347.219C360.738 346.421 358.039 343.628 359.09 342.576C359.944 341.722 407.926 340.142 415.59 340.715C421.079 341.126 423.506 340.854 426.34 339.509C429.827 337.854 430 337.538 430 332.82C430 330.097 429.598 327.111 429.108 326.184C428.617 325.258 428.054 320.675 427.858 316C427.5 307.5 427.5 307.5 430.96 307.5C433.823 307.5 434.806 308.105 436.654 311C437.882 312.925 439.771 315.646 440.852 317.048C441.933 318.449 443.142 321.824 443.539 324.548C444.548 331.462 446.793 336.692 449.751 339.019C451.875 340.69 453.815 341 462.135 341C472 341 472 341 472 345.624C472 350.248 472 350.248 477.342 349.805C480.539 349.54 485.356 348.073 489.342 346.15C496 342.939 496 342.939 496 336.993C496 331.753 496.297 330.851 498.5 329.408C500.644 328.003 501 327.018 501 322.492C501 316.605 500.352 316 494.044 316C489.104 316 483.235 313.881 476.186 309.552C473.059 307.631 468.101 305.551 465.168 304.929C461.445 304.14 459.057 302.924 457.253 300.9C455.832 299.305 454.017 298 453.219 298C452.422 298 448.53 296.483 444.571 294.629C439.539 292.273 436.371 289.994 434.046 287.059C432.217 284.749 428.336 281.514 425.422 279.869C420.048 276.836 416.32 273.088 410 264.366C408.075 261.71 403.414 256.378 399.641 252.518C394.858 247.624 391.802 243.381 389.543 238.5C387.762 234.65 384.375 229.074 382.018 226.11C379.655 223.138 376.94 218.203 375.968 215.11C374.998 212.024 372.593 206.575 370.625 203C368.101 198.417 367.039 195.227 367.023 192.184C366.996 187.171 366.145 185.299 362.013 181.167C359.237 178.391 359 177.604 359 171.166C359 166.987 358.201 161.63 357.013 157.839C354.848 150.933 354.458 144.557 355.958 140.61C356.485 139.224 357.671 133.457 358.595 127.795C359.518 122.133 360.956 116.713 361.791 115.75C363.858 113.369 369.232 113.494 371.478 115.976C373.588 118.308 373.236 122.618 370.043 133.5C365.418 149.267 365.517 148.59 366.86 155.235C367.556 158.681 368.998 163.201 370.063 165.281C371.128 167.36 372 170.277 372 171.761C372 174.514 373.852 179.787 379.391 192.807C381.845 198.576 384.185 201.859 390.5 208.395C397.111 215.237 399.975 217.379 407 220.731C411.675 222.962 416.85 225.256 418.5 225.829C424.545 227.927 434.685 231.862 441.854 234.892C447.45 237.257 450.706 238 455.478 238C458.927 238 463.662 238.675 466 239.5C469.365 240.687 475.699 240.999 496.376 240.994C510.744 240.991 525.2 240.541 528.5 239.995C531.8 239.449 539.675 238.713 546 238.359C555.263 237.842 558.428 237.253 562.27 235.331C564.926 234.003 570.387 232.521 574.59 231.989C578.743 231.462 582.514 230.801 582.97 230.519C583.426 230.237 588.232 229.549 593.65 228.99C599.067 228.431 606.65 227.122 610.5 226.081C614.35 225.04 622.225 223.687 628 223.075C633.775 222.463 640.74 221.286 643.479 220.46C647.01 219.395 650.507 219.144 655.51 219.597C661.621 220.151 663.026 219.954 666.032 218.122C670.299 215.52 672.476 215.504 682 218C686.125 219.081 692.425 219.974 696 219.984C699.575 219.994 707.095 221.137 712.712 222.524C718.329 223.911 726.005 225.432 729.771 225.905C736.309 226.726 742.5 229.15 748.061 233.064C749.47 234.056 751.945 235.183 753.561 235.57C755.177 235.957 759.563 238.288 763.308 240.752C767.052 243.215 775.377 247.49 781.808 250.253C793.17 255.134 799.286 258.75 801.656 261.99C802.693 263.407 805.533 264.837 816.927 269.68C818.811 270.481 822.636 271.366 825.427 271.647C828.361 271.943 834.294 273.916 839.5 276.329C848.5 280.5 848.5 280.5 865 280.388C893.088 280.198 894.571 279.937 910 272.449C911.375 271.782 917 270.222 922.5 268.984C931.009 267.067 932.961 266.244 935.591 263.463C937.291 261.666 941.003 259.018 943.841 257.581C946.678 256.143 949 254.573 949 254.091C949 253.61 951.059 250.926 953.577 248.126C956.596 244.768 959.404 242.699 961.83 242.046C965.66 241.014 968.469 238.44 976.388 228.701C978.981 225.511 982.821 221.35 984.92 219.453C988.878 215.878 989.632 213.791 990.869 203C991.446 197.972 991.729 197.473 994.169 197.191C996.004 196.979 997.869 197.805 1000.14 199.834C1003.44 202.786 1003.44 202.786 1002.2 210.143C1000.45 220.47 991.833 237.734 983.513 247.592C973.473 259.488 950.446 278.709 943.491 281C941.296 281.723 937.925 283.548 936 285.055C934.075 286.562 930.25 288.473 927.5 289.303C924.75 290.133 919.35 292.029 915.5 293.516C911.65 295.003 906.509 296.621 904.076 297.112C901.643 297.603 898.943 298.621 898.076 299.374C895.278 301.805 892.025 303.101 886.441 304.01C883.434 304.499 878.168 306.091 874.737 307.548C871.307 309.005 866.475 311.044 864 312.078C861.525 313.113 855.697 314.901 851.048 316.052C839.369 318.945 839 319.205 839 324.535C839 327.956 839.373 329 840.596 329C841.473 329 843.386 329.841 844.846 330.869C846.306 331.897 848.625 333.076 850 333.49C854.122 334.732 866.221 344.552 870.5 350.129C872.7 352.996 876.245 357.29 878.377 359.671C881.82 363.515 882.741 364 886.592 364C891.807 364 893 362.377 893 355.277C893 350.558 893.925 348.121 898.988 339.5C900.281 337.3 902.119 333.922 903.075 331.993C904.761 328.588 911.878 322 913.869 322C915.485 322 919 327.101 919 329.447C919 331.942 915.632 339.313 912.808 343C904.059 354.421 904.774 352.453 905.542 362.983C905.924 368.217 906.661 373.03 907.18 373.677C908.603 375.452 919.942 376.362 924.695 375.082C926.954 374.474 938.185 373.542 949.652 373.012C964.281 372.336 971.842 371.565 975 370.426C978.881 369.027 980.411 368.974 986.125 370.039C991.384 371.019 994.102 371.019 999.308 370.036C1002.91 369.356 1006.39 369.12 1007.02 369.513C1007.66 369.906 1017.25 370.628 1028.34 371.117C1054.31 372.264 1059.37 372.94 1059.83 375.324C1060.82 380.553 1051.87 383.457 1035.5 383.212C1029.45 383.121 1020.45 383.547 1015.5 384.157C1010.55 384.768 997.725 385.355 987 385.461C967.294 385.655 947.982 387.099 939.42 389.018C936.469 389.679 928.578 389.814 917.978 389.383C898.793 388.605 900.517 387.667 896.035 401.31C894.111 407.164 893.891 409.34 894.468 416.81C894.969 423.291 894.741 427.015 893.57 431.46C892.706 434.738 892 438.739 892 440.351C892 441.962 891.143 445.13 890.095 447.39C889.048 449.651 886.616 454.875 884.691 459C882.765 463.125 880.871 467.625 880.48 469C880.089 470.375 878.021 474.891 875.885 479.036C870.86 488.784 870.714 493.077 875.25 497.76C878.5 501.115 878.5 501.115 878.518 521.808C878.533 539.311 878.803 543.073 880.268 546.218C881.221 548.263 882 551.324 882 553.022C882 554.719 883.404 561.371 885.121 567.804C886.838 574.237 888.615 581.75 889.07 584.5C890.237 591.549 898.324 612.425 901.502 616.592C903.369 619.039 904.443 622.08 905.103 626.789C906.331 635.547 906.723 636.695 910.228 641.812C912.181 644.663 913.81 649.068 915.037 654.812C916.962 663.83 921.692 678.886 923.792 682.684C924.456 683.886 925.004 687.036 925.01 689.684C925.015 692.333 925.847 701.475 926.857 710C929.282 730.455 929.142 780.58 926.622 794.381C925.73 799.266 925 804.989 925 807.1C925 809.211 924.032 812.796 922.849 815.065C921.454 817.741 920.254 822.938 919.436 829.846C918.742 835.706 917.473 842.433 916.615 844.795C915.758 847.157 914.757 851.432 914.391 854.295C914.025 857.158 912.662 861.34 911.363 863.588C910.063 865.836 909 869.117 909 870.878C909 872.639 908.163 875.749 907.139 877.79C906.116 879.83 905.033 883.419 904.732 885.765C904.432 888.111 903.244 891.837 902.093 894.046C900.942 896.254 899.989 899.06 899.976 900.281C899.963 901.501 898.8 905.2 897.392 908.5C895.983 911.8 894.203 916.455 893.435 918.844C892.667 921.234 890.68 925.563 889.019 928.466C887.359 931.369 886 934.513 886 935.454C886 937.951 881.072 952.002 878.97 955.5C877.978 957.15 876.384 960.525 875.428 963C874.472 965.475 873.119 968.175 872.422 969C871.176 970.475 870.614 971.828 865.696 985.194C864.341 988.876 862.28 993.429 861.116 995.312C859.952 997.195 858.982 999.358 858.959 1000.12C858.937 1000.88 857.587 1003.06 855.959 1004.96C854.332 1006.87 853 1008.85 853 1009.37C853 1009.89 851.894 1011.76 850.542 1013.53C847.667 1017.3 843 1027.16 843 1029.47C843 1033.11 833.345 1049.46 820.662 1067.29C817.451 1071.81 814.152 1076.79 813.33 1078.36C812.509 1079.93 808.379 1085.78 804.154 1091.36C799.928 1096.94 795.494 1103.07 794.299 1105C793.104 1106.93 790.298 1110.28 788.063 1112.45C784.455 1115.96 784 1116.93 784 1121.08C784 1125.76 784 1125.76 788.443 1126.88C798.913 1129.52 805.16 1127.29 806.441 1120.46C806.809 1118.5 807.826 1116.62 808.7 1116.28C809.575 1115.95 814.162 1116.26 818.895 1116.97C823.628 1117.68 831.325 1118.62 836 1119.05C849.249 1120.29 857.159 1121.67 861.381 1123.47C863.985 1124.59 867.604 1125.07 872.381 1124.95C882.038 1124.69 906.598 1127.75 910.411 1129.68C915.687 1132.35 917 1134.04 917 1138.17C917 1141.57 916.597 1142.22 913.633 1143.64C910.275 1145.24 910.265 1145.26 909.735 1153.77C909.224 1161.95 909.073 1162.39 905.915 1164.86C902.627 1167.44 902.627 1167.44 882.563 1167.17C862.281 1166.9 852.68 1165.89 848.042 1163.56C842.405 1160.72 813.508 1159.55 809 1161.98C805.964 1163.61 798.106 1169.92 792 1175.63C786.824 1180.47 780.324 1182.73 776.129 1181.15C774.683 1180.61 766.199 1179.9 757.275 1179.58C741.228 1179 741.034 1179.02 739.642 1181.25C738.868 1182.49 737.978 1187.45 737.664 1192.28C737.207 1199.31 736.535 1202.09 734.296 1206.2C732.758 1209.03 730.825 1211.68 730 1212.1C719.214 1217.54 712.398 1223.72 709.482 1230.7C708.207 1233.75 698.002 1242.26 693.5 1244.03C692.4 1244.46 689.167 1245.76 686.315 1246.91C682.973 1248.26 678.884 1249 674.815 1249.01C671.342 1249.02 663.55 1249.87 657.5 1250.9C640.307 1253.84 633.371 1254.11 627 1252.08ZM653.43 1238.04C657.815 1235.33 662.601 1229.11 663.487 1224.97C663.894 1223.06 664.842 1220.01 665.592 1218.18C666.736 1215.4 667.4 1214.91 669.728 1215.18C672.433 1215.49 672.512 1215.68 673 1223.05C673.32 1227.88 674.138 1231.57 675.273 1233.3C676.832 1235.67 677.69 1236 682.388 1236C688.9 1236 692.022 1233.86 695.478 1227.04C696.804 1224.43 699.05 1220.91 700.47 1219.22C705.287 1213.49 707.942 1198.96 704.418 1197.61C702.021 1196.69 694.04 1196.92 689.105 1198.06C685.478 1198.9 683.452 1198.7 677.523 1196.94C667.35 1193.92 651.073 1194.38 646.25 1197.82C643.436 1199.83 643 1200.72 643 1204.49C643 1207.75 643.671 1209.64 645.672 1212.02C648.322 1215.17 648.332 1215.24 646.896 1220.76C645.421 1226.42 644.79 1227.09 639.5 1228.65C636.792 1229.45 636.471 1229.99 636.199 1234.19C635.854 1239.5 636.147 1239.7 644.882 1239.88C648.638 1239.96 651.221 1239.41 653.43 1238.04ZM543.923 1228.41C546.503 1226.24 547 1225.11 547 1221.41C547 1217.1 546.923 1217 543.75 1216.98C539.486 1216.96 538.539 1216.25 536.612 1211.63C535.497 1208.95 535 1204.69 535 1197.81C535 1192.34 534.572 1187.07 534.048 1186.09C533.524 1185.11 531.387 1183 529.298 1181.41C525.583 1178.56 525.173 1178.49 510.5 1178C496.998 1177.55 495.185 1177.28 492.346 1175.25C489.84 1173.46 487.834 1173 482.596 1173C476 1173 476 1173 476 1179.47C476 1186.68 478.653 1193.22 482.365 1195.17C483.539 1195.79 485.772 1197.36 487.327 1198.65C491.459 1202.09 498.366 1201.95 501.326 1198.37C508.985 1189.11 510.878 1187.49 512.7 1188.6C513.745 1189.24 514.614 1191.13 514.771 1193.1C515.027 1196.31 514.403 1197.7 509.794 1204.13C508.712 1205.64 507.837 1209.52 507.402 1214.73C506.717 1222.94 506.717 1222.94 509.609 1224.02C511.199 1224.62 514.346 1225.99 516.602 1227.07C520.777 1229.07 529.146 1230.66 536.673 1230.88C539.819 1230.97 541.604 1230.36 543.923 1228.41ZM641.866 1185.38C643.871 1183.98 644.11 1183.15 643.669 1179.13C643.389 1176.58 642.572 1172.36 641.853 1169.75C640.569 1165.08 640.473 1165 636.513 1165C633.415 1165 632.155 1165.52 631.075 1167.25C629.587 1169.63 628.331 1182.81 629.341 1185.45C630.162 1187.59 638.78 1187.54 641.866 1185.38ZM723.412 1184.49C727.135 1178.81 728.068 1168.66 726.305 1153C724.786 1139.5 719.023 1132 710.173 1132C706.572 1132 706.316 1132.22 704.693 1136.75C703.683 1139.57 702.992 1144.43 702.995 1148.71C702.998 1153.63 702.349 1157.58 700.959 1161.1C699.435 1164.97 698.992 1168.06 699.209 1173.32C699.5 1180.37 699.5 1180.37 705 1183.64C709.431 1186.28 711.596 1186.93 716.135 1186.96C721.068 1187 721.975 1186.69 723.412 1184.49ZM679.464 1178.25C681.239 1176.74 683.422 1175.05 684.315 1174.5C685.323 1173.88 686.315 1171.09 686.93 1167.15C687.475 1163.66 688.365 1160.26 688.908 1159.61C690.941 1157.16 693.061 1143.04 692.791 1133.74C692.56 1125.73 692.809 1123.97 694.51 1121.56C698.34 1116.13 698.971 1114.46 698.985 1109.77C698.999 1105.29 698.798 1104.94 695.183 1103.09C693.084 1102.02 690.779 1100.44 690.061 1099.57C688.323 1097.48 679.72 1097.43 678 1099.5C677.315 1100.32 675.893 1101 674.839 1101C672.065 1101 665.126 1108.07 663.98 1112.07C663.441 1113.95 663 1117.19 663 1119.28C663 1121.36 662.32 1124.69 661.488 1126.68C660.657 1128.67 659.058 1134.81 657.936 1140.31C656.814 1145.82 655.469 1151.12 654.948 1152.1C653.412 1154.97 653.941 1167.08 655.804 1171.72C658.258 1177.82 662.987 1180.81 670.368 1180.91C675.389 1180.99 676.702 1180.6 679.464 1178.25ZM559.44 1174.92C561.673 1173.8 566.376 1170.18 569.892 1166.88C576.283 1160.88 576.283 1160.88 575.635 1153.19C574.357 1138.04 570.9 1115.39 568.968 1109.5C567.885 1106.2 567 1100.91 567 1097.75C567 1092 567 1092 560.366 1092C556.717 1092 551.999 1092.52 549.88 1093.15C546.474 1094.17 545.795 1094.93 544.014 1099.69C542.906 1102.65 542 1106.87 542 1109.07C542 1111.27 541.325 1114.68 540.5 1116.66C538.55 1121.32 536.965 1130.81 535.85 1144.5C535.357 1150.55 534.702 1158.03 534.394 1161.12C533.924 1165.85 534.239 1167.54 536.387 1171.78C537.791 1174.55 539.515 1177.07 540.219 1177.39C542.801 1178.55 555.424 1176.93 559.44 1174.92ZM612.582 1170.75C622.645 1152.38 623.233 1149.17 619.127 1135C617.931 1130.88 616.676 1124.35 616.338 1120.5C615.733 1113.61 613.81 1108 612.051 1108C611.557 1108 609.724 1106.8 607.978 1105.33C604.133 1102.09 596.715 1099.82 588.106 1099.25C581.711 1098.82 581.711 1098.82 582.435 1105.66C582.833 1109.42 583.531 1117.9 583.984 1124.5C584.438 1131.1 585.54 1139.88 586.432 1144C587.616 1149.47 587.878 1153.84 587.404 1160.17C586.754 1168.85 586.754 1168.85 590.469 1172.17C594.92 1176.16 599.089 1177.87 604.555 1177.94C608.573 1178 608.647 1177.93 612.582 1170.75ZM513.77 1162.62C524.618 1155.71 525.755 1152.25 526.653 1123.38C527.169 1106.76 527.033 1101.75 526.035 1100.54C525.085 1099.4 522.774 1099 517.066 1099C510.71 1099 508.998 1099.35 507.189 1101.04C505.985 1102.16 505 1103.52 505 1104.06C505 1104.6 503.258 1106.95 501.13 1109.27C496.999 1113.78 494.052 1119.03 492.007 1125.5C491.312 1127.7 489.226 1132.24 487.372 1135.6C484.578 1140.65 484 1142.74 484 1147.79C484 1151.14 484.468 1154.17 485.041 1154.53C485.613 1154.88 487.185 1156.92 488.534 1159.05C491.381 1163.56 494.536 1164.78 503.77 1164.91C508.758 1164.98 510.802 1164.51 513.77 1162.62ZM783.232 1163C783.919 1161.9 784.862 1161 785.327 1161C785.792 1161 788.159 1159.57 790.587 1157.83C794.625 1154.93 795 1154.3 795 1150.38C795 1146.33 794.82 1146.06 791.727 1145.48C789.928 1145.14 786.452 1145.01 784.004 1145.18C779.665 1145.49 779.533 1145.6 778.747 1149.6C778.026 1153.27 777.526 1153.83 773.971 1154.89C770.115 1156.05 770 1156.21 770 1160.54C770 1165 770 1165 775.992 1165C780.9 1165 782.209 1164.64 783.232 1163ZM644.545 1145.75C644.941 1143.41 645.599 1137.9 646.007 1133.5C646.472 1128.49 647.72 1123.26 649.351 1119.5C652.216 1112.89 653.034 1101.43 650.8 1099.2C650.14 1098.54 647.847 1098 645.704 1098C641.623 1098 638 1099.98 632.25 1105.35C627.778 1109.53 627.838 1114.78 632.499 1127C635.697 1135.38 635.943 1136.76 635.356 1143.08C634.713 1150 634.713 1150 639.268 1150C643.824 1150 643.824 1150 644.545 1145.75ZM437.807 1114.7C438.114 1109.89 438.114 1109.89 432.807 1110.2C427.5 1110.5 427.5 1110.5 427.193 1115.3C426.886 1120.11 426.886 1120.11 432.193 1119.8C437.5 1119.5 437.5 1119.5 437.807 1114.7ZM383.171 1047.34C385.474 1045.26 385.798 1037 383.577 1037C382.794 1037 380.816 1035.88 379.182 1034.5C376.862 1032.55 375.093 1032 371.106 1032C366 1032 366 1032 366 1036.56C366 1040.18 366.65 1041.93 369.167 1045.06C372.009 1048.59 372.798 1049 376.839 1049C379.626 1049 382.039 1048.37 383.171 1047.34ZM653.883 609.8C655.374 607.489 657.331 605.867 659.093 605.48C661.111 605.036 664.562 601.676 671.208 593.68C681.875 580.846 685 575.651 685 570.755C685 567.767 687.294 562.195 691.692 554.5C696.216 546.585 697.803 541.741 698.9 532.5C699.553 527 700.725 520.025 701.503 517C702.281 513.975 703.182 509.813 703.504 507.75C703.827 505.688 704.543 504 705.096 504C705.649 504 706.806 502.315 707.667 500.255C709.672 495.457 709.061 483.269 706.631 479.56C705.056 477.156 704.452 477 696.727 477.004C690.247 477.007 687.799 477.435 685.198 479.02C682.057 480.936 681.911 481.288 682.198 486.267C682.5 491.5 682.5 491.5 689.5 492C695.865 492.455 696.53 492.708 696.826 494.797C697.044 496.34 696.285 497.775 694.51 499.171C693.057 500.314 690.127 505.018 687.999 509.625C685.003 516.108 683.502 518.239 681.354 519.056C677.792 520.41 674.939 519.661 670.988 516.336C668.122 513.925 667.877 513.284 668.413 509.586C670.982 491.859 670.589 489.61 664.469 486.987C660.125 485.125 660 484.945 660 480.581C660 476.091 660 476.091 653.353 475.796C647.442 475.533 646.48 475.197 644.668 472.763C643.328 470.965 642.48 467.965 642.195 464.013C641.76 458 641.76 458 636.928 458C632.096 458 632.096 458 628.221 466.25C626.089 470.788 623.593 475.118 622.673 475.872C621.458 476.869 621 478.838 621 483.066C621 489.871 622.948 492 629.173 492C631.224 492 635.19 492.491 637.987 493.091C644.901 494.573 646.176 496.703 645.796 506.135C645.513 513.155 645.37 513.543 642.564 514.884C640.949 515.656 637.747 516.5 635.448 516.759C631.603 517.192 631.038 516.941 628.384 513.615C625.905 510.508 624.918 510 621.359 510C617.219 510 617.219 510 616.502 520.966C615.549 535.552 616.627 547.076 619.611 554.22C620.925 557.366 622 561.136 622 562.599C622 566.189 626.236 577.696 630.957 586.933C633.085 591.095 635.149 595.625 635.544 597C635.939 598.375 637.077 600.657 638.072 602.071C639.067 603.485 640.417 606.769 641.072 609.37C642.262 614.099 642.262 614.099 646.878 613.799C650.964 613.534 651.769 613.075 653.883 609.8ZM838 497.727C843.058 495.93 844 495.142 844 492.706C844 491.313 846.478 488.187 850.889 484.015C864.123 471.5 868.76 465.488 870.036 459.189C870.67 456.06 872.496 451.436 874.094 448.912C876.174 445.63 877 443.066 877 439.898C877 437.215 877.865 433.9 879.196 431.485C882.233 425.975 883.05 408.037 880.561 401.52C877.585 393.729 877.044 393.603 849.475 394.31C836.207 394.65 824.647 395.198 823.785 395.529C822.654 395.963 822.045 398.127 821.595 403.315C821.252 407.267 820.698 413.605 820.365 417.4C819.757 424.3 819.757 424.3 826.077 423.727C833.805 423.026 836.674 424.297 839.761 429.788C841.422 432.743 842.003 435.416 842.013 440.136C842.036 451.887 836.517 472.712 832.109 477.5C825.757 484.4 822 490.905 822 495.002C822 499 822 499 828.25 498.985C831.688 498.977 836.075 498.411 838 497.727ZM503 493.135C503 489.95 502.367 487.446 501.166 485.885C500.157 484.573 498.643 482.15 497.802 480.5C496.961 478.85 495.539 476.15 494.643 474.5C492.332 470.248 492.609 465.644 495.5 460.212C496.875 457.629 498 454.762 498 453.84C498 449.987 499.15 449 503.638 449C506.469 449 508.253 448.505 508.59 447.626C508.88 446.87 510.666 445.418 512.559 444.398C515.755 442.677 516 442.199 516 437.679C516 433.612 515.663 432.725 513.947 432.276C512.818 431.981 510.006 430.785 507.697 429.62C503.703 427.603 503.5 427.282 503.5 423C503.5 418.5 503.5 418.5 508.88 418.193C514.261 417.886 514.261 417.886 513.764 410.943C513.313 404.647 513.441 404 515.14 404C516.17 404 517.991 405.125 519.187 406.5C521.002 408.587 522.249 409 526.736 409C532.02 409 532.222 408.889 538.628 402.484C542.211 398.9 546.851 395.096 548.937 394.032C552.927 391.997 554 389.516 554 382.327C554 378.659 551.666 375.94 545 371.845C543.075 370.662 539.475 367.81 537 365.507C528.186 357.306 527.436 357.1 506.385 357.1C487.715 357.1 487.715 357.1 483.383 360.081C475.867 365.252 469.116 372.827 468.429 376.861C468.088 378.862 466.336 382.975 464.537 386C460.104 393.451 457.447 401.738 456.041 412.5C455.394 417.45 454.22 424.875 453.433 429C451.465 439.304 451.63 447.888 453.928 454.746C454.988 457.911 456.156 462.428 456.522 464.785C456.888 467.141 458.207 470.291 459.453 471.785C460.699 473.278 462.426 475.85 463.29 477.5C464.751 480.29 470.758 486.832 476.143 491.5C480.251 495.06 488.986 497.854 496.25 497.93C503 498 503 498 503 493.135ZM685.755 450.83C686.067 449.636 687.712 445.924 689.411 442.58C691.686 438.102 693.523 435.935 696.383 434.354C698.519 433.173 701.151 430.811 702.231 429.104C704.377 425.716 706.444 425.265 709.441 427.532C712.71 430.004 719.24 429.392 723.123 426.25C731.59 419.399 732 418.847 732 414.32C732 410.388 731.777 410 729.519 410C727.662 410 726.869 409.326 726.365 407.319C724.969 401.757 731.456 396.005 739.128 396.002C743.742 396 744.588 394.867 745.478 387.5C746.324 380.491 747.068 378.877 751.402 374.642C753.17 372.914 755.45 370.08 756.469 368.344C757.487 366.609 760.067 364.206 762.203 363.006C764.339 361.806 767.146 359.145 768.442 357.093C771.548 352.171 789.353 336.531 795.684 333.162C796.886 332.523 799.608 332 801.734 332C806.098 332 808 330.611 808 327.422C808 324.752 809.535 323.464 813.642 322.687C815.37 322.361 819.87 319.763 823.642 316.915C832.119 310.515 843.124 305.346 850.957 304.084C859.76 302.667 861 301.743 861 296.601C861 292.272 861 292.272 856.37 291.637C853.824 291.288 850.336 290.15 848.62 289.107C846.904 288.064 843.521 286.888 841.102 286.493C838.683 286.098 835.21 285.15 833.384 284.387C831.558 283.624 828.709 283 827.052 283C823.309 283 816.468 280.411 812.5 277.492C810.558 276.064 807.532 275.123 803.922 274.825C799.989 274.5 797.335 273.606 794.922 271.792C793.04 270.378 788.681 267.811 785.235 266.088C781.79 264.366 776.609 261.504 773.722 259.728C762.097 252.579 752.382 247.501 748.561 246.577C746.945 246.187 744.4 244.997 742.907 243.934C741.413 242.87 739.636 242 738.957 242C738.278 242 733.075 240.657 727.394 239.015C721.713 237.374 713.563 235.329 709.283 234.471C705.002 233.613 699.878 232.286 697.895 231.522C691.998 229.249 682.754 228.586 678.366 230.121C675.989 230.953 669.88 231.494 662.5 231.526C648.961 231.585 624.012 234.908 619.469 237.257C617.822 238.109 614.23 239.096 611.487 239.45C602.438 240.618 593.614 242.207 585.367 244.152C580.893 245.208 573.919 246.476 569.867 246.971C555.075 248.777 536.425 251.875 533.5 253.012C527.665 255.28 509.456 257.111 504.277 255.95C501.65 255.361 492.525 254.455 484 253.936C464.567 252.754 455.072 251.645 452.474 250.254C451.359 249.657 447.551 248.644 444.011 248.002C440.471 247.36 435.758 245.807 433.537 244.551C428.345 241.614 421.303 239.757 416.938 240.173C413.596 240.491 413.491 240.634 413.194 245.281C412.888 250.061 412.888 250.061 424.121 261.031C430.3 267.064 435.709 272 436.143 272C436.576 272 438.423 273.311 440.247 274.912C442.072 276.514 445.575 278.9 448.032 280.215C454.948 283.916 461.162 288.071 465 291.561C466.925 293.311 470.025 295.027 471.889 295.374C473.753 295.721 478.448 297.621 482.322 299.596C491.337 304.19 504.948 309 508.933 309C510.634 309 515.273 309.9 519.243 311C523.212 312.1 527.414 313 528.581 313C529.748 313 532.682 314.039 535.101 315.309C537.521 316.579 542.04 318.637 545.145 319.883C548.249 321.128 551.815 323.239 553.069 324.573C554.811 326.428 556.384 327 559.74 327C565.412 327 567.259 328.063 570.978 333.468C572.657 335.908 575.34 338.679 576.941 339.624C580.404 341.67 583.294 347.541 582.831 351.594C582.547 354.092 582.02 354.546 579.085 354.826C576.278 355.093 575.252 354.619 573.331 352.164C570.497 348.543 558.756 340.674 551.094 337.259C546.662 335.285 543.267 334.658 534.75 334.242C524 333.717 524 333.717 524 338.339C524 343.378 523.621 343.101 532.5 344.527C536.696 345.201 540 347.428 540 349.583C540 350.379 542.095 351.118 545.585 351.554C550.14 352.123 552.029 352.996 555.835 356.291C558.401 358.513 562.439 361.189 564.809 362.238C567.212 363.302 569.931 365.483 570.957 367.17C571.969 368.833 574.943 372.434 577.567 375.172C585.263 383.202 588 387.097 588 390.016C588 392.112 588.698 393.047 590.967 393.986C592.599 394.662 594.454 395.842 595.089 396.608C595.757 397.412 598.105 398 600.647 398C604.453 398 605.182 397.652 606.025 395.435C606.561 394.024 607 391.171 607 389.095C607 386.051 606.522 385.103 604.528 384.195C603.168 383.575 601.851 382.04 601.601 380.784C598.363 364.519 598.395 363 601.975 363C603.096 363 604.991 364.125 606.187 365.5C607.383 366.875 609.209 368 610.246 368C614.321 368 615.635 369.748 616.783 376.694C618.657 388.033 619.904 397.134 620.593 404.5C621.333 412.412 622.187 414.607 624.857 415.455C625.88 415.779 627.524 417.835 628.51 420.022C630.238 423.854 630.479 424 635.08 424C640.588 424 641.573 424.778 645 431.826C647.459 436.884 647.574 436.969 652 436.969C657.868 436.969 658.786 436.269 659.175 431.495C659.538 427.056 662.344 425.358 663.467 428.897C663.818 430.003 665.994 431.946 668.303 433.215C672.5 435.521 672.5 435.521 673.885 444.261C675.269 453 675.269 453 680.228 453C684.476 453 685.269 452.689 685.755 450.83ZM802.188 384.376C804.75 383.077 827.097 381.505 859.75 380.327C872 379.886 872 379.886 872 374.946C872 370.638 871.52 369.478 868.25 365.878C866.188 363.607 863.825 359.684 863 357.159C861.756 353.351 860.989 352.463 858.5 351.951C855.076 351.247 849.285 348.446 846.851 346.315C844.517 344.273 835.401 342.022 829.5 342.032C826.75 342.036 821.08 342.642 816.899 343.38C809.088 344.757 806.052 346.355 798.442 353.094C794.484 356.599 780.986 365 779.312 365C778.069 365 767.694 372.11 766.282 373.93C764.679 375.995 764.657 384.254 766.25 385.861C767.966 387.592 798.323 386.338 802.188 384.376ZM491.821 1007.25C485.345 1001.21 482.264 996.328 480.893 989.937C480.277 987.067 478.104 982.397 475.888 979.182C473.082 975.111 471.697 971.808 471.003 967.533C470.47 964.251 470.364 961.246 470.767 960.854C471.17 960.463 473.075 959.998 475 959.821C478.414 959.508 478.508 959.383 478.805 954.75C479.11 950 479.11 950 475.626 950C471.878 950 469.55 948.307 468.425 944.763C468.037 943.54 466.81 941.309 465.699 939.807C463.974 937.474 463.629 935.21 463.333 924.288C462.526 894.457 462.448 895 467.519 895C470.975 895 471 894.968 471 890.523C471 886.847 471.449 885.752 473.51 884.402C475.851 882.868 476.463 882.883 482.641 884.629C492.764 887.489 492.441 886.324 492.114 918.873C491.864 943.651 492.043 947.377 493.843 955C494.947 959.675 496.389 966.65 497.048 970.5C497.784 974.804 499.065 978.463 500.373 980C506.161 986.802 510.002 995.562 509.985 1001.92C509.967 1008.41 509.447 1009.5 505.665 1010.94C500.103 1013.05 497.219 1012.28 491.821 1007.25ZM414.773 796.25C413.928 795.287 412.901 793.375 412.491 792C412.08 790.625 410.726 787.7 409.482 785.5C407.811 782.546 407.024 779.016 406.471 772C404.969 752.915 405.045 752.302 409.921 744.049C415.867 733.985 427.221 723.066 431.778 723.027C435.057 723 435.057 723 434.778 715.75C434.523 709.104 434.752 708.127 437.521 704.026C439.78 700.681 441.534 699.274 444.477 698.448C447.692 697.546 448.566 696.755 449.246 694.132C449.703 692.366 450.959 689.476 452.035 687.71C453.112 685.945 453.994 683.715 453.996 682.755C453.999 681.69 455.655 680.218 458.25 678.976C463.37 676.526 469 671.589 469 669.549C469 666.241 476.014 655.362 479.236 653.671C490.517 647.75 490.479 647.785 490.818 643.029C491.245 637.038 486.391 621.127 481.81 613.5C479.624 609.861 479.494 606.051 481.468 603.441C482.276 602.374 482.951 600.037 482.968 598.25C482.995 595.471 483.357 595 485.465 595C486.84 595 488.368 595.818 488.921 596.851C490.473 599.752 492.998 613.002 492.999 618.25C493 623 493 623 497.702 623C501.612 623 502.947 622.474 505.621 619.883C507.39 618.168 509.858 616.256 511.106 615.633C512.799 614.787 513.815 612.751 515.116 607.593C516.991 600.16 520.607 595.251 523.413 596.328C525.759 597.229 525.478 604.704 522.942 608.864C521.814 610.714 517.889 618.123 514.22 625.328C508.021 637.501 507.512 638.997 507.024 646.464C506.5 654.5 506.5 654.5 502.5 655.061C495.412 656.056 492.138 658.529 488.928 665.313C486.296 670.878 486.003 672.505 486.014 681.5C486.033 695.622 486.189 696 492.002 696C496.002 696 497.038 695.592 498.431 693.466C500.799 689.851 510.107 685.816 515.2 686.195C519.175 686.492 519.33 686.64 520.736 691.5C521.531 694.25 522.403 698.307 522.673 700.516C523.164 704.53 523.159 704.537 513.082 713.379C507.537 718.244 503 722.612 503 723.084C503 725.133 488.949 742.304 479.99 751.203C470.711 760.42 466.768 766.061 458.297 782.243C455.237 788.087 441.216 795.198 429.308 796.945C419.341 798.407 416.55 798.274 414.773 796.25Z"/>
</svg>
