<?xml version="1.0" encoding="UTF-8"?>
<!-- WiseOwl.Casc mark: bold "CASC" lettermark (typeface glyph
     outlines baked to vector — no runtime font dependency), 2×2 on
     the shared Wise Owl tile, autumn-brown ink, owl brand tick,
     family keyline. Sibling of the D4 "D·IV" mark. Generated by
     build/Lettermark; do not hand-edit. -->
<svg xmlns="http://www.w3.org/2000/svg" viewBox="0 0 256 256" width="256" height="256">
  <defs>
    <linearGradient id="tileC" x1="0" y1="0" x2="0" y2="1">
      <stop offset="0" stop-color="#161b22"/><stop offset="1" stop-color="#0b0e13"/></linearGradient>
    <linearGradient id="ink" x1="0" y1="0" x2="0" y2="1">
      <stop offset="0" stop-color="#A8743A"/><stop offset="1" stop-color="#8A5A33"/></linearGradient>
    <radialGradient id="warm" cx="0.5" cy="0.45" r="0.6">
      <stop offset="0" stop-color="#A8743A" stop-opacity="0.12"/><stop offset="1" stop-color="#A8743A" stop-opacity="0"/></radialGradient>
  </defs>
  <rect width="256" height="256" rx="52" fill="url(#tileC)"/>
  <ellipse cx="128" cy="118" rx="96" ry="92" fill="url(#warm)"/>
  <path fill="url(#ink)" d="M106.996 86.575L88.2698 86.575L88.2698 74.3588Q88.2698 69.5709 87.861 68.6491Q87.4522 67.7273 86.1216 67.7273Q84.6022 67.7273 84.1662 68.8793Q83.7302 70.0313 83.7302 74.9016L83.7302 105.382Q83.7302 110.045 84.1634 111.159Q84.5966 112.273 86 112.273Q87.3534 112.273 87.8116 111.133Q88.2698 109.993 88.2698 104.754L88.2698 95.6948L106.996 95.6948L106.996 99.0629Q106.996 109.359 105.489 113.824Q103.981 118.289 98.8283 121.644Q93.6752 125 86.2027 125Q78.4805 125 73.3902 122.158Q68.2999 119.316 66.652 114.309Q65.0041 109.302 65.0041 99.5049L65.0041 80.3329Q65.0041 73.1384 65.5041 69.493Q66.0041 65.8476 68.544 62.3903Q71.084 58.9329 75.5454 56.9665Q80.0069 55 85.7163 55Q93.4891 55 98.6288 58.0542Q103.769 61.1084 105.382 65.6671Q106.996 70.2257 106.996 79.5305L106.996 86.575Z"/>
  <path fill="url(#ink)" d="M183.032 55L193.312 125L173.489 125L172.536 112.722L167.77 112.722L166.702 125L146.688 125L155.847 55L183.032 55ZM172.009 98.924Q170.669 88.3307 169.932 71.9198Q168.297 90.8801 167.625 98.924L172.009 98.924Z"/>
  <path fill="url(#ink)" d="M104.909 143.86L87.3984 143.86L87.3984 138.186Q87.3984 135.03 86.9734 134.379Q86.5485 133.727 85.5744 133.727Q84.5212 133.727 83.9129 134.695Q83.3046 135.663 83.3046 137.987Q83.3046 141.091 84.1931 142.832Q84.8518 144.041 88.5897 146.251Q100.155 153.115 103.209 157.591Q106.327 162.162 106.327 172.031Q106.327 179.221 104.582 182.755Q102.837 186.288 97.9131 188.644Q92.9894 191 86.5472 191Q79.4698 191 74.4143 188.292Q69.3588 185.584 67.7793 181.358Q66.1998 177.131 66.1998 169.599L66.1998 164.492L83.7099 164.492L83.7099 173.287Q83.7099 176.755 84.1915 177.514Q84.6732 178.273 85.8987 178.273Q87.1482 178.273 87.8002 177.223Q88.4522 176.174 88.4522 173.774Q88.4522 168.293 87.5301 167.005Q85.5136 165.035 79.2412 160.92Q72.8104 156.66 70.6625 154.68Q68.5146 152.701 67.0937 149.181Q65.6728 145.66 65.6728 140.253Q65.6728 132.494 67.7093 128.807Q69.7458 125.12 74.2484 123.06Q78.751 121 85.007 121Q91.8342 121 96.7529 123.257Q101.672 125.514 103.29 128.988Q104.909 132.462 104.909 140.456L104.909 143.86Z"/>
  <path fill="url(#ink)" d="M190.996 152.575L172.27 152.575L172.27 140.359Q172.27 135.571 171.861 134.649Q171.452 133.727 170.122 133.727Q168.602 133.727 168.166 134.879Q167.73 136.031 167.73 140.902L167.73 171.382Q167.73 176.045 168.163 177.159Q168.597 178.273 170 178.273Q171.353 178.273 171.812 177.133Q172.27 175.993 172.27 170.754L172.27 161.695L190.996 161.695L190.996 165.063Q190.996 175.359 189.489 179.824Q187.981 184.289 182.828 187.644Q177.675 191 170.203 191Q162.481 191 157.39 188.158Q152.3 185.316 150.652 180.309Q149.004 175.302 149.004 165.505L149.004 146.333Q149.004 139.138 149.504 135.493Q150.004 131.848 152.544 128.39Q155.084 124.933 159.545 122.966Q164.007 121 169.716 121Q177.489 121 182.629 124.054Q187.769 127.108 189.382 131.667Q190.996 136.226 190.996 145.531L190.996 152.575Z"/>
  <g fill="#8A5A33">
    <path fill="none" stroke="#8A5A33" stroke-width="4" stroke-linecap="round" d="M114 200 L122 207 M142 200 L134 207"/>
    <circle cx="121" cy="211" r="4.5"/><circle cx="135" cy="211" r="4.5"/>
    <path d="M128 214 L132 221 L124 221 Z"/>
  </g>
  <rect x="10" y="10" width="236" height="236" rx="44" fill="none" stroke="#8A5A33" stroke-width="3" opacity="0.55"/>
</svg>
